<svg width="32" height="32" viewBox="0 0 32 32" fill="none" xmlns="http://www.w3.org/2000/svg">
  <!-- Background circle -->
  <circle cx="16" cy="16" r="16" fill="#2563eb"/>
  
  <!-- Letter N -->
  <path d="M10 9C10 8.44772 10.4477 8 11 8C11.5523 8 12 8.44772 12 9V16.5858L19.2929 9.29289C19.6834 8.90237 20.3166 8.90237 20.7071 9.29289C21.0976 9.68342 21.0976 10.3166 20.7071 10.7071L13.4142 18H21C21.5523 18 22 18.4477 22 19C22 19.5523 21.5523 20 21 20H11C10.7348 20 10.4804 19.8946 10.2929 19.7071C10.1054 19.5196 10 19.2652 10 19V9Z" fill="white"/>
  
  <!-- Connection dots -->
  <circle cx="22" cy="22" r="2" fill="#60a5fa"/>
  <circle cx="10" cy="22" r="2" fill="#60a5fa"/>
  <circle cx="16" cy="26" r="2" fill="#60a5fa"/>
</svg>
